# xmcd
#
# Track frame offsets:
#	150
#	25738
#	55602
#	101531
#	136999
#	161764
#	209106
#	241265
#	270433
#	296417
#	315990
#
# Disc length: 4686 seconds
# Revision: 0
# Processed by: cddbd v1.5.2PL0 Copyright (c) Steve Scherf et al.
# Submitted via: dBpowerAMP V12.0
#
DISCID=93124c0b
DTITLE=Various Artist - Journey into Paradise: The Larry Levan Story
DYEAR=2006
DGENRE=R&B
TTITLE0=Womack and Womack - Baby I'm Scared of You
TTITLE1=Sister Sledge - Lost in Music
TTITLE2=Five Special - Why Leave Us Alone (12" Long Version)
TTITLE3=Trussel - Love Injection
TTITLE4=Lace - Can't Play Around (12" Vocal Version) (Mixed by Larry Levan)
TTITLE5=Inner Life - Ain't No Mountain High Enough (The Garage Version) (Mixed by Larry Levan)
TTITLE6=Gwen Guthrie - It Should Have Been You (12" Vocal Version) (Mixed by Larry Levan)
TTITLE7=Change - A Lover's Holiday (12" Version)
TTITLE8=Yaz - Situation
TTITLE9=Talking Heads - Once in a Lifetime
TTITLE10=Donald Byrd - Love Has Come Around (12" Version)
EXTD=
EXTT0=
EXTT1=
EXTT2=
EXTT3=
EXTT4=
EXTT5=
EXTT6=
EXTT7=
EXTT8=
EXTT9=
EXTT10=
PLAYORDER=
